<svg width="124" height="124" viewBox="0 0 124 124" fill="none" xmlns="http://www.w3.org/2000/svg">
<path d="M15.6996 38.6728C20.5166 20.4423 22.9251 11.327 30.085 7.15995C37.245 2.9929 46.3602 5.40141 64.5908 10.2184L85.3288 15.698C103.559 20.515 112.675 22.9235 116.842 30.0834C121.009 37.2434 118.6 46.3586 113.783 64.5892L108.304 85.3272C103.487 103.558 101.078 112.673 93.9182 116.84C86.7582 121.007 77.6429 118.599 59.4124 113.782L38.6744 108.302C20.4438 103.485 11.3286 101.077 7.16153 93.9166C2.99448 86.7566 5.40299 77.6414 10.22 59.4108L15.6996 38.6728Z" fill="url(#paint0_linear_1_1296)"/>
<path fill-rule="evenodd" clip-rule="evenodd" d="M35.3983 34.8922C32.4419 37.9181 30.2206 41.6774 29.094 44.1955C28.814 44.8214 28.0796 45.1018 27.4536 44.8218C26.8277 44.5418 26.5473 43.8074 26.8273 43.1814C28.0461 40.4571 30.4187 36.4356 33.6221 33.1568C36.8044 29.8997 41.0073 27.1784 45.8524 27.5511C46.5361 27.6037 47.0477 28.2006 46.9951 28.8843C46.9425 29.568 46.3456 30.0796 45.6619 30.027C41.8985 29.7375 38.3758 31.8447 35.3983 34.8922Z" fill="black"/>
<path fill-rule="evenodd" clip-rule="evenodd" d="M76.8039 29.1149C76.8527 28.4309 77.4468 27.916 78.1308 27.9649C82.4138 28.2708 91.6012 31.8168 95.7641 43.2645C95.9984 43.909 95.666 44.6214 95.0215 44.8557C94.3771 45.0901 93.6647 44.7576 93.4303 44.1132C89.6468 33.7085 81.3965 30.6877 77.9539 30.4418C77.2699 30.3929 76.755 29.7989 76.8039 29.1149Z" fill="black"/>
<path d="M60.2443 63.9678C49.3181 59.0013 36.6536 63.0021 31.6872 65.6233C29.6178 58.4495 29.2039 42.4465 44.9311 42.0326C60.575 41.6209 61.6239 55.9663 60.2443 63.9678Z" fill="white"/>
<path fill-rule="evenodd" clip-rule="evenodd" d="M59.7257 49.506C61.8669 54.2538 61.7632 60.0293 61.0597 64.1095L60.8775 65.1661L59.9014 64.7224C54.6238 62.3235 48.8955 62.078 43.843 62.7713C38.7885 63.4649 34.4732 65.0897 32.0732 66.3564L31.1735 66.8313L30.8915 65.8538C29.8282 62.1677 29.1767 56.1953 30.8476 51.0389C31.6883 48.4447 33.1273 46.0272 35.4262 44.233C37.7292 42.4356 40.8315 41.3135 44.9089 41.2062C48.9489 41.0999 52.1142 41.9459 54.5535 43.4587C56.9934 44.9719 58.6477 47.1157 59.7257 49.506ZM53.6809 44.8656C51.5668 43.5544 48.7345 42.7616 44.9525 42.8611C41.1663 42.9608 38.4227 43.9943 36.4447 45.538C34.4626 47.085 33.1856 49.1942 32.4225 51.5492C31.0208 55.875 31.3888 60.928 32.228 64.4294C34.8783 63.1743 38.9517 61.7715 43.6179 61.1312C48.5625 60.4527 54.2286 60.6232 59.5879 62.7871C60.1001 58.9879 59.9986 54.1379 58.2166 50.1866C57.2494 48.0419 55.7945 46.1764 53.6809 44.8656Z" fill="black"/>
<path d="M93.5912 64.234C83.1034 58.3984 70.1564 61.3596 64.9938 63.5696C63.5127 56.2518 64.3971 40.2678 80.1061 41.1299C95.7319 41.9875 95.6147 56.3706 93.5912 64.234Z" fill="white"/>
<path fill-rule="evenodd" clip-rule="evenodd" d="M94.2471 49.776C95.9964 54.6817 95.425 60.4298 94.3931 64.4396L94.1259 65.4779L93.189 64.9566C88.1231 62.1378 82.4336 61.4289 77.3415 61.7105C72.2474 61.9921 67.8146 63.2619 65.3198 64.3299L64.3846 64.7302L64.1828 63.7331C63.4217 59.973 63.2564 53.9675 65.3398 48.9634C66.3879 46.4459 68.0181 44.1529 70.4548 42.551C72.8959 40.9461 76.079 40.0792 80.1517 40.3027C84.187 40.5241 87.2733 41.6239 89.582 43.3294C91.8912 45.0354 93.3663 47.3062 94.2471 49.776ZM88.5983 44.661C86.5974 43.1828 83.8386 42.163 80.061 41.9557C76.2792 41.7481 73.4609 42.5559 71.3643 43.9343C69.2633 45.3155 67.8196 47.3143 66.8681 49.5997C65.1204 53.7976 65.0777 58.8639 65.6303 62.4217C68.3736 61.3856 72.5473 60.3175 77.2501 60.0575C82.2334 59.782 87.8671 60.4112 93.0334 63.0022C93.8517 59.2571 94.1436 54.4148 92.6878 50.3321C91.8975 48.116 90.5986 46.1387 88.5983 44.661Z" fill="black"/>
<path d="M43.2767 58.174C43.2767 60.9169 41.0531 63.1404 38.3102 63.1404C35.5673 63.1404 33.3438 60.9169 33.3438 58.174C33.3438 55.4311 35.5673 53.2075 38.3102 53.2075C41.0531 53.2075 43.2767 55.4311 43.2767 58.174Z" fill="black"/>
<path d="M76.7556 57.3069C76.5333 60.0408 74.1368 62.0768 71.4029 61.8545C68.669 61.6322 66.633 59.2358 66.8553 56.5019C67.0776 53.768 69.4741 51.732 72.2079 51.9543C74.9418 52.1766 76.9779 54.573 76.7556 57.3069Z" fill="black"/>
<path d="M37.4789 59.83C37.4789 60.7443 36.7378 61.4855 35.8235 61.4855C34.9092 61.4855 34.168 60.7443 34.168 59.83C34.168 58.9157 34.9092 58.1746 35.8235 58.1746C36.7378 58.1746 37.4789 58.9157 37.4789 59.83Z" fill="white"/>
<path d="M71.5409 58.4372C71.4668 59.3485 70.668 60.0272 69.7567 59.9531C68.8454 59.879 68.1667 59.0801 68.2408 58.1688C68.3149 57.2575 69.1137 56.5789 70.025 56.653C70.9363 56.7271 71.615 57.5259 71.5409 58.4372Z" fill="white"/>
<path fill-rule="evenodd" clip-rule="evenodd" d="M88.179 79.4163C88.5615 79.9854 88.4103 80.7569 87.8412 81.1394C67.0609 95.1065 45.1524 86.9498 36.7754 81.1285C36.2123 80.7372 36.073 79.9635 36.4643 79.4004C36.8556 78.8373 37.6293 78.698 38.1924 79.0893C46.0944 84.5805 66.8423 92.2614 86.4559 79.0785C87.025 78.6959 87.7965 78.8472 88.179 79.4163Z" fill="black"/>
<path fill-rule="evenodd" clip-rule="evenodd" d="M36.4139 78.4126C35.2068 79.4363 34.4505 80.9348 34.1377 81.9983C34.0087 82.4369 33.5486 82.6879 33.11 82.5589C32.6714 82.4299 32.4205 81.9698 32.5495 81.5312C32.9264 80.2495 33.8256 78.437 35.3432 77.15C36.906 75.8246 39.1011 75.0858 41.8828 76.0131C42.3165 76.1576 42.5509 76.6264 42.4063 77.0601C42.2617 77.4938 41.793 77.7282 41.3593 77.5836C39.1745 76.8553 37.5758 77.4272 36.4139 78.4126Z" fill="black"/>
<path fill-rule="evenodd" clip-rule="evenodd" d="M83.0059 76.3242C83.0394 75.8683 83.4362 75.5259 83.8921 75.5594C85.3657 75.6677 87.5404 76.1934 89.288 77.4616C91.0835 78.7647 92.4166 80.8554 92.0472 83.9332C91.9927 84.3871 91.5806 84.7109 91.1267 84.6565C90.6728 84.602 90.349 84.1899 90.4035 83.736C90.6914 81.3373 89.6967 79.8038 88.3156 78.8015C86.8866 77.7644 85.0357 77.3034 83.7707 77.2104C83.3148 77.1769 82.9724 76.7801 83.0059 76.3242Z" fill="black"/>
<defs>
<linearGradient id="paint0_linear_1_1296" x1="17.299" y1="133.157" x2="99.2612" y2="130.623" gradientUnits="userSpaceOnUse">
<stop stop-color="#1579D3"/>
<stop offset="0.635417" stop-color="#3495ED"/>
<stop offset="1" stop-color="#47A3F5"/>
</linearGradient>
</defs>
</svg>
