<svg width="64" height="64" viewBox="0 0 64 64" fill="none" xmlns="http://www.w3.org/2000/svg">
<g clip-path="url(#clip0_1_2214)">
<circle cx="32" cy="32" r="32" fill="#064288"/>
<path fill-rule="evenodd" clip-rule="evenodd" d="M17 13.1216L28.757 12.432L34.1768 13.6878L23.4437 15.1556L17 13.1216ZM35.6977 19.4193L45.598 16.0384L38.2424 14.7209L27.9243 16.8729L35.6977 19.4193ZM38.0103 38.9645L45.9994 32.4253L44.4513 31.3788L36.0854 37.706L38.0103 38.9645ZM27.5939 32.4307L27.5365 29.5193L25.0983 30.8717L27.5939 32.4307ZM38.2861 22.8754L37.0574 24.1285L38.7666 23.2726L38.8321 20.3048L38.2861 22.8754ZM41.3441 21.4479L40.2274 22.5829L41.7728 21.8048L41.8356 19.1188L41.3441 21.4479ZM43.9052 20.3907L42.8676 21.4452L44.3038 20.7234L44.3666 18.2226L43.9052 20.3907ZM37.9994 28.8511L36.8226 30.1713L38.4198 29.1409L38.6082 26.4415L37.9994 28.8511ZM40.8062 27.4236L39.6731 28.6928L41.2103 27.7L41.396 25.0972L40.8062 27.4236ZM43.4465 25.9854L42.3816 27.1714L43.8233 26.2483L44.0007 23.8146L43.4465 25.9854ZM37.7891 34.5263L36.7871 35.7821L38.1768 34.7625L38.2233 32.3287L37.7891 34.5263ZM40.6588 32.5622L39.7086 33.7589L41.0328 32.7849L41.0738 30.4558L40.6588 32.5622ZM43.026 30.9092L42.1441 32.0201L43.37 31.1159L43.4083 28.9612L43.026 30.9092ZM41.4806 43.6093L40.525 45.1898L41.8574 43.9072L41.8983 40.8455L41.4806 43.6093ZM43.3618 41.4305L42.4799 42.9626L43.7113 41.5539L43.7468 39.1014L43.3618 41.4305ZM26.4744 18.4668L25.2976 19.4193L26.9714 18.829L26.9167 16.3577L26.4744 18.4668ZM26.6355 23.7717L25.4423 24.7135L27.1133 24.1312L27.1324 21.6975L26.6355 23.7717ZM26.6847 28.3333L25.5379 29.2134L27.1406 28.5935L27.1652 26.565L26.6847 28.3333ZM45.0929 31.0085L46.256 15.6251L39.6731 14.2567L34.7093 15.3139L34.7775 13.237L28.8062 12L17 13.1216L28.757 12.432L34.1768 13.6878L34.1495 15.5742L38.2424 14.7209L45.598 16.0411L44.4513 31.3788L45.9994 32.4253L45.2185 41.5432L36.9946 51.2514L37.2704 39.7132L35.3345 38.3044L35.6458 20.5946L27.9761 17.8899L28.1727 33.9038L24.2191 31.2688L23.471 16.3604L17.1092 14.0957L19.3154 37.2123L37.071 52L45.8356 41.6585L46.7612 32.0335L45.0929 31.0085Z" fill="white"/>
</g>
<defs>
<clipPath id="clip0_1_2214">
<rect width="64" height="64" fill="white"/>
</clipPath>
</defs>
</svg>
