<svg width="37" height="37" viewBox="0 0 37 37" fill="none" xmlns="http://www.w3.org/2000/svg">
<path d="M20.4947 3.37647e-06C21.0386 3.37647e-06 21.5252 0.338549 21.7083 0.845443L23.0144 4.46585C23.4824 4.5824 23.8839 4.69895 24.2243 4.82104C24.5961 4.95424 25.0753 5.15589 25.6673 5.43154L28.7086 3.82206C28.9569 3.69054 29.2411 3.64306 29.5186 3.68676C29.7961 3.73045 30.052 3.86296 30.2478 4.0644L32.9229 6.83012C33.2781 7.19827 33.378 7.73661 33.1782 8.2065L31.7518 11.5494C31.9886 11.9842 32.1773 12.356 32.3216 12.6668C32.477 13.0053 32.6694 13.4715 32.8988 14.0728L36.2232 15.4973C36.7227 15.71 37.0317 16.2095 36.9984 16.7442L36.7542 20.5829C36.7375 20.8322 36.648 21.0712 36.4967 21.2702C36.3454 21.4692 36.139 21.6193 35.9032 21.7021L32.7545 22.8213C32.6639 23.2561 32.5695 23.6279 32.4696 23.9424C32.3085 24.4281 32.1245 24.9059 31.9183 25.3743L33.5001 28.8708C33.6117 29.1164 33.6418 29.3914 33.5858 29.6554C33.5299 29.9193 33.3909 30.1585 33.1893 30.3378L30.1812 33.024C29.9831 33.2001 29.7359 33.3115 29.4727 33.3433C29.2095 33.375 28.9429 33.3256 28.7086 33.2016L25.6081 31.5588C25.123 31.8156 24.6225 32.0424 24.1096 32.2377L22.7554 32.7446L21.5529 36.0746C21.4638 36.3184 21.3031 36.5297 21.0918 36.6805C20.8805 36.8314 20.6285 36.9149 20.3689 36.92L16.854 36.9996C16.5875 37.0065 16.3254 36.9308 16.1038 36.7827C15.8822 36.6346 15.7119 36.4215 15.6163 36.1726L14.1993 32.4227C13.7158 32.2575 13.237 32.0786 12.7637 31.8862C12.3765 31.7186 11.9952 31.5379 11.6204 31.3442L8.10543 32.8464C7.87383 32.9452 7.61849 32.9745 7.37051 32.9308C7.12253 32.8871 6.8926 32.7723 6.7087 32.6003L4.10763 30.1602C3.91398 29.9793 3.78209 29.7421 3.73063 29.4822C3.67918 29.2222 3.71075 28.9527 3.82088 28.7117L5.33231 25.4187C5.1313 25.0287 4.94494 24.6313 4.77362 24.2273C4.57364 23.7329 4.38856 23.2325 4.21863 22.727L0.907169 21.7187C0.637998 21.6374 0.403225 21.4694 0.239308 21.2409C0.0753914 21.0125 -0.0084938 20.7363 0.00067981 20.4552L0.130178 16.9014C0.139396 16.6695 0.21183 16.4446 0.339647 16.2509C0.467465 16.0572 0.645801 15.9022 0.855369 15.8025L4.32963 14.1338C4.49057 13.5437 4.63117 13.0849 4.75512 12.75C4.92965 12.3028 5.12346 11.8633 5.33601 11.4329L3.83013 8.2509C3.71585 8.00926 3.68115 7.73761 3.73101 7.475C3.78087 7.21239 3.91273 6.97236 4.10763 6.78942L6.705 4.33635C6.88708 4.16462 7.1149 4.04917 7.36105 4.00387C7.6072 3.95858 7.8612 3.98538 8.09248 4.08105L11.6037 5.53144C11.9922 5.27244 12.3437 5.06339 12.6619 4.89504C13.0412 4.6934 13.5481 4.4825 14.1863 4.25495L15.4073 0.849143C15.4976 0.599893 15.6626 0.384579 15.8798 0.232603C16.097 0.080627 16.3558 -0.000603557 16.6209 3.37647e-06H20.4947ZM18.5449 12.985C15.4609 12.985 12.9616 15.4547 12.9616 18.5035C12.9616 21.5522 15.4609 24.0238 18.5449 24.0238C21.6269 24.0238 24.1262 21.5522 24.1262 18.5035C24.1262 15.4547 21.6288 12.985 18.5449 12.985Z" fill="#1579D3"/>
</svg>
