<svg width="31" height="30" viewBox="0 0 31 30" fill="none" xmlns="http://www.w3.org/2000/svg">
<path d="M3.16797 30C3.16797 30 0.667969 30 0.667969 27.5C0.667969 25 3.16797 17.5 15.668 17.5C28.168 17.5 30.668 25 30.668 27.5C30.668 30 28.168 30 28.168 30H3.16797ZM15.668 15C17.6571 15 19.5647 14.2098 20.9713 12.8033C22.3778 11.3968 23.168 9.48912 23.168 7.5C23.168 5.51088 22.3778 3.60322 20.9713 2.1967C19.5647 0.790177 17.6571 0 15.668 0C13.6788 0 11.7712 0.790177 10.3647 2.1967C8.95815 3.60322 8.16797 5.51088 8.16797 7.5C8.16797 9.48912 8.95815 11.3968 10.3647 12.8033C11.7712 14.2098 13.6788 15 15.668 15Z" fill="#1579D3"/>
</svg>
