<svg width="34" height="34" viewBox="0 0 34 34" fill="none" xmlns="http://www.w3.org/2000/svg">
<path d="M27.1237 32.375L15.6237 20.875C14.9848 21.125 14.3254 21.3194 13.6454 21.4583C12.9643 21.5972 12.2626 21.6667 11.5404 21.6667C8.51259 21.6667 5.95037 20.6178 3.8537 18.52C1.75592 16.4233 0.707031 13.8611 0.707031 10.8333C0.707031 9.66667 0.88092 8.54167 1.2287 7.45833C1.57536 6.375 2.08203 5.375 2.7487 4.45833L9.1237 10.8333L11.4987 8.5L5.1237 2.08333C6.06814 1.38889 7.08203 0.867778 8.16536 0.52C9.2487 0.173333 10.3598 0 11.4987 0C14.5265 0 17.0893 1.04833 19.187 3.145C21.2837 5.24278 22.332 7.80556 22.332 10.8333C22.332 11.5556 22.2626 12.2706 22.1237 12.9783C21.9848 13.6872 21.7765 14.3611 21.4987 15L32.957 26.4583C33.5959 27.0972 33.9226 27.8817 33.937 28.8117C33.9504 29.7428 33.6376 30.5278 32.9987 31.1667L31.8737 32.3333C31.2348 33 30.4498 33.34 29.5187 33.3533C28.5887 33.3678 27.7904 33.0417 27.1237 32.375Z" fill="#1579D3"/>
</svg>
