<svg width="31" height="34" viewBox="0 0 31 34" fill="none" xmlns="http://www.w3.org/2000/svg">
<path d="M20.3344 23.6951L23.2086 21.1523C23.5954 20.8143 24.072 20.5959 24.5806 20.5236C25.0891 20.4513 25.6077 20.5282 26.0735 20.7449L29.2938 22.2648C29.7641 22.49 30.1571 22.8494 30.4234 23.2976C30.6897 23.7459 30.8174 24.263 30.7903 24.7837L30.4206 30.8294C30.3961 31.1832 30.3003 31.5285 30.1389 31.8443C29.9775 32.1601 29.7539 32.44 29.4814 32.6672C29.209 32.8943 28.8934 33.0639 28.5537 33.1659C28.214 33.2679 27.8572 33.3 27.5047 33.2604C4.46174 30.4068 0.992497 10.5332 0.568338 2.98246C0.54988 2.61181 0.610109 2.24146 0.745063 1.89576C0.880017 1.55006 1.08664 1.23685 1.35133 0.976743C1.61602 0.716633 1.93279 0.515514 2.2808 0.386618C2.6288 0.257722 3.00015 0.20397 3.37042 0.228899L9.2106 0.586099C9.73166 0.619517 10.2308 0.808056 10.6438 1.12747C11.0569 1.44688 11.3649 1.88255 11.5283 2.37845L12.6444 5.76003C12.8091 6.24716 12.8266 6.77202 12.6948 7.26905C12.5629 7.76607 12.2875 8.21324 11.903 8.55467L9.02889 11.0975C9.02889 11.0975 9.94306 21.7488 20.3344 23.6951Z" fill="#1579D3"/>
</svg>
