<svg width="30" height="30" viewBox="0 0 30 30" fill="none" xmlns="http://www.w3.org/2000/svg">
<path d="M28.33 21.56V25.56C28.3315 25.9313 28.2554 26.2989 28.1067 26.6391C27.9579 26.9793 27.7397 27.2848 27.4661 27.5358C27.1925 27.7868 26.8694 27.9779 26.5177 28.0969C26.1659 28.2159 25.7932 28.2601 25.4233 28.2266C21.3204 27.7808 17.3793 26.3788 13.9167 24.1333C10.6951 22.0862 7.96377 19.3549 5.91666 16.1333C3.66329 12.6549 2.26098 8.69463 1.82332 4.5733C1.79 4.20459 1.83382 3.83298 1.95199 3.48213C2.07016 3.13128 2.26008 2.80889 2.50968 2.53546C2.75927 2.26204 3.06306 2.04358 3.40171 1.894C3.74036 1.74441 4.10644 1.66698 4.47666 1.66663H8.47666C9.12373 1.66026 9.75105 1.8894 10.2417 2.31134C10.7323 2.73328 11.0528 3.31923 11.1433 3.95997C11.3122 5.24006 11.6253 6.49694 12.0767 7.70663C12.256 8.18387 12.2949 8.70252 12.1885 9.20114C12.0822 9.69976 11.8351 10.1574 11.4767 10.52L9.78332 12.2133C11.6814 15.5514 14.4453 18.3152 17.7833 20.2133L19.4767 18.52C19.8392 18.1615 20.2969 17.9144 20.7955 17.8081C21.2941 17.7018 21.8128 17.7406 22.29 17.92C23.4997 18.3714 24.7566 18.6845 26.0367 18.8533C26.6843 18.9447 27.2759 19.2709 27.6987 19.77C28.1215 20.269 28.3462 20.9061 28.33 21.56Z" stroke="#1579D3" stroke-width="2" stroke-linecap="round" stroke-linejoin="round"/>
</svg>
