<svg width="32" height="32" viewBox="0 0 32 32" fill="none" xmlns="http://www.w3.org/2000/svg">
<path d="M25.8693 19.9997C25.6918 20.4018 25.6388 20.8479 25.7173 21.2805C25.7957 21.713 26.0019 22.1121 26.3093 22.4263L26.3893 22.5063C26.6372 22.754 26.8339 23.0481 26.9681 23.3718C27.1023 23.6956 27.1714 24.0426 27.1714 24.393C27.1714 24.7434 27.1023 25.0905 26.9681 25.4142C26.8339 25.7379 26.6372 26.032 26.3893 26.2797C26.1416 26.5276 25.8475 26.7243 25.5238 26.8585C25.2001 26.9927 24.853 27.0618 24.5026 27.0618C24.1522 27.0618 23.8052 26.9927 23.4814 26.8585C23.1577 26.7243 22.8636 26.5276 22.6159 26.2797L22.5359 26.1997C22.2217 25.8923 21.8226 25.6861 21.3901 25.6077C20.9575 25.5292 20.5114 25.5822 20.1093 25.7597C19.7149 25.9287 19.3786 26.2093 19.1417 26.5671C18.9048 26.9248 18.7776 27.344 18.7759 27.773V27.9997C18.7759 28.7069 18.495 29.3852 17.9949 29.8853C17.4948 30.3854 16.8165 30.6663 16.1093 30.6663C15.402 30.6663 14.7238 30.3854 14.2237 29.8853C13.7236 29.3852 13.4426 28.7069 13.4426 27.9997V27.8797C13.4323 27.4383 13.2894 27.0103 13.0326 26.6513C12.7758 26.2922 12.4169 26.0187 12.0026 25.8663C11.6004 25.6889 11.1543 25.6359 10.7218 25.7143C10.2893 25.7928 9.89018 25.999 9.57594 26.3063L9.49594 26.3863C9.24828 26.6343 8.95417 26.831 8.63045 26.9652C8.30672 27.0994 7.95971 27.1684 7.60927 27.1684C7.25883 27.1684 6.91182 27.0994 6.5881 26.9652C6.26437 26.831 5.97027 26.6343 5.7226 26.3863C5.47467 26.1387 5.27798 25.8446 5.14378 25.5208C5.00958 25.1971 4.94051 24.8501 4.94051 24.4997C4.94051 24.1492 5.00958 23.8022 5.14378 23.4785C5.27798 23.1548 5.47467 22.8607 5.7226 22.613L5.8026 22.533C6.10999 22.2188 6.31619 21.8197 6.39461 21.3871C6.47304 20.9546 6.42009 20.5085 6.2426 20.1063C6.07359 19.712 5.79294 19.3757 5.43522 19.1388C5.0775 18.9019 4.65832 18.7747 4.22927 18.773H4.0026C3.29536 18.773 2.61708 18.4921 2.11699 17.992C1.61689 17.4919 1.33594 16.8136 1.33594 16.1063C1.33594 15.3991 1.61689 14.7208 2.11699 14.2207C2.61708 13.7206 3.29536 13.4397 4.0026 13.4397H4.1226C4.56393 13.4294 4.99194 13.2865 5.351 13.0297C5.71006 12.7729 5.98356 12.414 6.13594 11.9997C6.31342 11.5975 6.36637 11.1514 6.28794 10.7189C6.20952 10.2864 6.00332 9.88725 5.69594 9.57301L5.61594 9.49301C5.368 9.24535 5.17131 8.95124 5.03711 8.62752C4.90291 8.30379 4.83384 7.95678 4.83384 7.60634C4.83384 7.2559 4.90291 6.9089 5.03711 6.58517C5.17131 6.26144 5.368 5.96734 5.61594 5.71967C5.8636 5.47174 6.1577 5.27505 6.48143 5.14085C6.80516 5.00665 7.15216 4.93758 7.5026 4.93758C7.85305 4.93758 8.20005 5.00665 8.52378 5.14085C8.84751 5.27505 9.14161 5.47174 9.38927 5.71967L9.46927 5.79967C9.78351 6.10706 10.1826 6.31326 10.6152 6.39168C11.0477 6.47011 11.4938 6.41716 11.8959 6.23967H12.0026C12.397 6.07066 12.7333 5.79002 12.9702 5.43229C13.2071 5.07457 13.3342 4.65539 13.3359 4.22634V3.99967C13.3359 3.29243 13.6169 2.61415 14.117 2.11406C14.6171 1.61396 15.2954 1.33301 16.0026 1.33301C16.7098 1.33301 17.3881 1.61396 17.8882 2.11406C18.3883 2.61415 18.6693 3.29243 18.6693 3.99967V4.11967C18.671 4.54872 18.7981 4.96791 19.035 5.32563C19.2719 5.68335 19.6082 5.96399 20.0026 6.13301C20.4048 6.31049 20.8509 6.36344 21.2834 6.28501C21.7159 6.20659 22.115 6.00039 22.4293 5.69301L22.5093 5.61301C22.7569 5.36507 23.051 5.16838 23.3748 5.03418C23.6985 4.89998 24.0455 4.83091 24.3959 4.83091C24.7464 4.83091 25.0934 4.89998 25.4171 5.03418C25.7408 5.16838 26.0349 5.36507 26.2826 5.61301C26.5305 5.86067 26.7272 6.15477 26.8614 6.4785C26.9956 6.80223 27.0647 7.14923 27.0647 7.49967C27.0647 7.85012 26.9956 8.19712 26.8614 8.52085C26.7272 8.84458 26.5305 9.13868 26.2826 9.38634L26.2026 9.46634C25.8952 9.78058 25.689 10.1797 25.6106 10.6122C25.5322 11.0447 25.5851 11.4909 25.7626 11.893V11.9997C25.9316 12.394 26.2123 12.7304 26.57 12.9673C26.9277 13.2042 27.3469 13.3313 27.7759 13.333H28.0026C28.7098 13.333 29.3881 13.614 29.8882 14.1141C30.3883 14.6142 30.6693 15.2924 30.6693 15.9997C30.6693 16.7069 30.3883 17.3852 29.8882 17.8853C29.3881 18.3854 28.7098 18.6663 28.0026 18.6663H27.8826C27.4536 18.6681 27.0344 18.7952 26.6767 19.0321C26.3189 19.269 26.0383 19.6053 25.8693 19.9997V19.9997Z" stroke="#1579D3" stroke-width="2" stroke-linecap="round" stroke-linejoin="round"/>
</svg>
